<mxfile host="app.diagrams.net" modified="2021-05-24T06:13:34.209Z" agent="5.0 (Macintosh; Intel Mac OS X 10_15_7) AppleWebKit/537.36 (KHTML, like Gecko) Chrome/90.0.4430.93 Safari/537.36" etag="B-yq1VzH1A0j4lC_yNXL" version="14.6.11" type="github">
  <diagram id="dCUTc9sOKAr1p2qa3_eu" name="Page-1">
    <mxGraphModel dx="450" dy="353" grid="1" gridSize="10" guides="1" tooltips="1" connect="1" arrows="1" fold="1" page="1" pageScale="1" pageWidth="827" pageHeight="1169" math="0" shadow="0">
      <root>
        <mxCell id="0" />
        <mxCell id="1" parent="0" />
        <mxCell id="9uOoId45jy_4N00Gg9Ln-3" style="edgeStyle=orthogonalEdgeStyle;rounded=0;orthogonalLoop=1;jettySize=auto;html=1;" edge="1" parent="1" source="9uOoId45jy_4N00Gg9Ln-1" target="9uOoId45jy_4N00Gg9Ln-2">
          <mxGeometry relative="1" as="geometry" />
        </mxCell>
        <mxCell id="9uOoId45jy_4N00Gg9Ln-10" value="MQ" style="edgeStyle=orthogonalEdgeStyle;rounded=0;orthogonalLoop=1;jettySize=auto;html=1;entryX=0.5;entryY=0;entryDx=0;entryDy=0;" edge="1" parent="1" source="9uOoId45jy_4N00Gg9Ln-1" target="9uOoId45jy_4N00Gg9Ln-9">
          <mxGeometry relative="1" as="geometry" />
        </mxCell>
        <mxCell id="9uOoId45jy_4N00Gg9Ln-1" value="BPMS" style="rounded=0;whiteSpace=wrap;html=1;" vertex="1" parent="1">
          <mxGeometry x="230" y="140" width="80" height="30" as="geometry" />
        </mxCell>
        <mxCell id="9uOoId45jy_4N00Gg9Ln-2" value="DB" style="shape=datastore;whiteSpace=wrap;html=1;" vertex="1" parent="1">
          <mxGeometry x="384" y="125" width="60" height="60" as="geometry" />
        </mxCell>
        <mxCell id="9uOoId45jy_4N00Gg9Ln-5" value="SAVE" style="edgeStyle=orthogonalEdgeStyle;rounded=0;orthogonalLoop=1;jettySize=auto;html=1;entryX=0;entryY=0.5;entryDx=0;entryDy=0;" edge="1" parent="1" source="9uOoId45jy_4N00Gg9Ln-4" target="9uOoId45jy_4N00Gg9Ln-1">
          <mxGeometry relative="1" as="geometry" />
        </mxCell>
        <mxCell id="9uOoId45jy_4N00Gg9Ln-4" value="Actor" style="shape=umlActor;verticalLabelPosition=bottom;verticalAlign=top;html=1;outlineConnect=0;" vertex="1" parent="1">
          <mxGeometry x="80" y="125" width="30" height="60" as="geometry" />
        </mxCell>
        <mxCell id="9uOoId45jy_4N00Gg9Ln-12" style="edgeStyle=orthogonalEdgeStyle;rounded=0;orthogonalLoop=1;jettySize=auto;html=1;entryX=0.097;entryY=0.657;entryDx=0;entryDy=0;entryPerimeter=0;" edge="1" parent="1" source="9uOoId45jy_4N00Gg9Ln-9" target="9uOoId45jy_4N00Gg9Ln-11">
          <mxGeometry relative="1" as="geometry" />
        </mxCell>
        <mxCell id="9uOoId45jy_4N00Gg9Ln-14" style="edgeStyle=orthogonalEdgeStyle;rounded=0;orthogonalLoop=1;jettySize=auto;html=1;entryX=0;entryY=0.667;entryDx=0;entryDy=0;entryPerimeter=0;" edge="1" parent="1" source="9uOoId45jy_4N00Gg9Ln-9" target="9uOoId45jy_4N00Gg9Ln-13">
          <mxGeometry relative="1" as="geometry" />
        </mxCell>
        <mxCell id="9uOoId45jy_4N00Gg9Ln-9" value="ddpaas" style="rounded=0;whiteSpace=wrap;html=1;" vertex="1" parent="1">
          <mxGeometry x="230" y="230" width="80" height="40" as="geometry" />
        </mxCell>
        <mxCell id="9uOoId45jy_4N00Gg9Ln-11" value="search" style="html=1;verticalLabelPosition=bottom;align=center;labelBackgroundColor=#ffffff;verticalAlign=top;strokeWidth=2;strokeColor=#0080F0;shadow=0;dashed=0;shape=mxgraph.ios7.icons.looking_glass;" vertex="1" parent="1">
          <mxGeometry x="399" y="230" width="30" height="30" as="geometry" />
        </mxCell>
        <mxCell id="9uOoId45jy_4N00Gg9Ln-13" value="ADB" style="strokeWidth=2;html=1;shape=mxgraph.flowchart.database;whiteSpace=wrap;" vertex="1" parent="1">
          <mxGeometry x="384" y="310" width="60" height="60" as="geometry" />
        </mxCell>
      </root>
    </mxGraphModel>
  </diagram>
</mxfile>
